Coordinates
version=1
nRows=19
nColumns=24
inDegrees=yes

Units are S.I. units (second, meters, Newtons, ...)
Angles are in degrees.

endheader
time	pelvis_tilt	pelvis_list	pelvis_rotation	pelvis_tx	pelvis_ty	pelvis_tz	hip_flexion_r	hip_adduction_r	hip_rotation_r	knee_angle_r	ankle_angle_r	subtalar_angle_r	mtp_angle_r	hip_flexion_l	hip_adduction_l	hip_rotation_l	knee_angle_l	ankle_angle_l	subtalar_angle_l	mtp_angle_l	lumbar_extension	lumbar_bending	lumbar_rotation
      1.07083333	      0.13269593	     -4.68877763	     -4.03249413	     -0.14387153	      1.05669073	      0.33508672	    -14.47308840	      8.46017901	      2.55603810	     -5.70760311	      5.13570436	     -9.74448002	      5.28470544	     18.23148990	     -3.21853093	     -8.72851128	      6.71911986	      0.32097102	     -1.11199789	      4.83210963	      1.56688696	      9.34659840	      2.36418262
      1.07500000	      0.21616969	     -4.72169676	     -3.82194504	     -0.13805250	      1.05624606	      0.33469007	    -14.70974382	      8.50994225	      2.41903491	     -6.06113290	      5.15748469	     -9.61340382	      5.30623065	     18.18300871	     -3.11590187	     -8.58402864	      6.56072838	      0.44827594	     -0.29202459	      4.74541588	      1.53191069	      9.35891684	      2.33937801
      1.07916667	      0.20066845	     -4.70803058	     -3.89572596	     -0.13208244	      1.05584019	      0.33454427	    -14.80291762	      8.43367943	      2.46250707	     -6.52804018	      5.12019108	     -9.61053107	      5.30972489	     18.13416096	     -3.04777161	     -8.46699130	      6.46231562	      0.44030544	     -0.19507386	      4.73493926	      1.56031041	      9.34773759	      2.33276463
      1.08333333	      0.21659584	     -4.70143732	     -3.87018180	     -0.12612259	      1.05544184	      0.33433933	    -14.92566928	      8.39239141	      2.46726822	     -6.98734139	      5.06286647	     -9.52472174	      5.32476583	     18.08251316	     -2.96947791	     -8.21761524	      6.26759235	      0.38299590	      0.07146886	      4.70103604	      1.55571709	      9.33083990	      2.32897906
      1.08750000	      0.24237564	     -4.70327615	     -3.89691875	     -0.12018020	      1.05510303	      0.33418734	    -15.03125550	      8.34645918	      2.48645808	     -7.50914884	      5.01691780	     -9.51355581	      5.32922296	     18.02441580	     -2.91756533	     -8.07992953	      5.99459583	      0.34116698	      0.13761736	      4.69404362	      1.61297569	      9.30127024	      2.33602468
      1.09166667	      0.27233149	     -4.69691967	     -3.92321294	     -0.11420353	      1.05477927	      0.33404318	    -15.12332990	      8.29065377	      2.48500835	     -8.06694216	      4.95327936	     -9.48463538	      5.33517770	     17.95319050	     -2.86263739	     -7.87118692	      5.68809046	      0.26011894	      0.22624365	      4.68734274	      1.65050257	      9.26612585	      2.34605407
      1.09583333	      0.32722746	     -4.68864359	     -3.74398052	     -0.10816894	      1.05441137	      0.33358290	    -15.23357958	      8.27894606	      2.21308228	     -8.60633319	      4.80514342	     -9.24643220	      5.37299310	     17.89717716	     -2.74230661	     -7.40510941	      5.31066702	     -0.02712597	      0.34580475	      4.65280846	      1.60866465	      9.27078300	      2.36116030
      1.10000000	      0.36499891	     -4.66018762	     -3.81074063	     -0.10210374	      1.05417289	      0.33347069	    -15.29741476	      8.18255271	      2.22777704	     -9.23831320	      4.74153873	     -9.22487665	      5.37975771	     17.79734828	     -2.68115321	     -7.21636742	      4.93585065	     -0.10525490	      0.37133391	      4.64922737	      1.65850544	      9.21886932	      2.36864229
      1.10416667	      0.40328810	     -4.63197420	     -3.84455388	     -0.09602983	      1.05394442	      0.33334376	    -15.34106215	      8.09854732	      2.19334000	     -9.91105985	      4.64212403	     -9.17226207	      5.38906230	     17.70060093	     -2.61679874	     -6.98426732	      4.54363390	     -0.25142074	      0.39102471	      4.64512493	      1.68811107	      9.15133751	      2.38253062
      1.10833333	      0.41680380	     -4.57305937	     -3.69227731	     -0.08982620	      1.05361956	      0.33277784	    -15.33228339	      8.00931609	      1.77028901	    -10.58845419	      4.33205535	     -8.81321292	      5.43545500	     17.64673348	     -2.44890106	     -6.43225984	      4.14626039	     -0.86558950	      0.23341858	      4.62745357	      1.54170297	      9.08097194	      2.41011441
      1.11250000	      0.59247345	     -4.50030674	     -3.59981987	     -0.08369904	      1.05357962	      0.33215606	    -15.47324284	      7.85667007	      1.43010039	    -11.32916971	      4.35598100	     -8.11519556	      5.64244806	     17.34650770	     -2.27195872	     -5.59311101	      3.84281693	     -1.45632485	     -1.10898875	      4.60237105	      1.55289310	      9.02336697	      2.34299878
      1.11666667	      0.64774457	     -4.45594587	     -3.64911206	     -0.07758226	      1.05347760	      0.33202550	    -15.46844616	      7.73992654	      1.40030410	    -12.12281108	      4.24123559	     -8.11429077	      5.65324372	     17.21526655	     -2.20312015	     -5.43393918	      3.39868017	     -1.58297558	     -1.08188688	      4.60224180	      1.61168133	      8.95017210	      2.35499577
      1.12083333	      0.66724527	     -4.33887957	     -3.55398982	     -0.07117771	      1.05330088	      0.33141696	    -15.40290164	      7.54875494	      0.95150845	    -12.92464934	      3.82156198	     -7.62470925	      5.84480068	     17.08106888	     -1.99006534	     -4.83227835	      3.07357147	     -2.44121764	     -1.73939221	      4.60874575	      1.68068955	      8.87970861	      2.35330500
      1.12500000	      0.73614915	     -4.29738164	     -3.59482744	     -0.06512354	      1.05328840	      0.33127607	    -15.35147793	      7.43069547	      0.87912949	    -13.82586448	      3.69611713	     -7.60967370	      5.85965057	     16.93467152	     -1.93189648	     -4.69865812	      2.61844040	     -2.56950511	     -1.74752969	      4.61036771	      1.70853005	      8.76942620	      2.36664685
      1.12916667	      0.79524573	     -4.15876122	     -3.48844271	     -0.05878896	      1.05323789	      0.33044307	    -15.25718693	      7.18487236	      0.33401529	    -14.75024236	      3.34507160	     -6.86933679	      6.20284835	     16.74051720	     -1.67849280	     -4.00034049	      2.31711140	     -3.56643846	     -3.05522008	      4.65774177	      1.62315624	      8.61605767	      2.33784653
      1.13333333	      0.84404756	     -4.05062202	     -3.45641077	     -0.05251832	      1.05324227	      0.33007215	    -15.13720624	      6.99095572	      0.03390426	    -15.71172828	      2.92725094	     -6.68834666	      6.29122283	     16.60241459	     -1.51843119	     -3.87427069	      1.89142769	     -3.99121440	     -3.12094471	      4.67149661	      1.64787644	      8.46939978	      2.35884299
      1.13750000	      0.90962705	     -3.91732038	     -3.44701891	     -0.04621983	      1.05333114	      0.32965267	    -15.00399271	      6.74682504	     -0.27715529	    -16.72312275	      2.44857719	     -6.34895827	      6.40928239	     16.41646144	     -1.33533054	     -3.67761899	      1.51671182	     -4.53167120	     -3.38704996	      4.68962109	      1.65988645	      8.29802787	      2.37723841
      1.14166667	      1.02255340	     -3.75077534	     -3.46417135	     -0.03985805	      1.05354445	      0.32910888	    -14.89859539	      6.43089570	     -0.57569517	    -17.77307472	      1.97591348	     -5.82236034	      6.66041527	     16.12060530	     -1.11424973	     -3.24014659	      1.24762629	     -5.23194609	     -4.08843735	      4.73522122	      1.69956225	      8.17189334	      2.37071252
      1.14583333	      1.05509735	     -3.60746987	     -3.49898995	     -0.03363887	      1.05367110	      0.32871847	    -14.65492362	      6.15601304	     -0.84858627	    -18.92938920	      1.71580029	     -5.74054559	      6.71382872	     15.97398957	     -0.93981551	     -3.17011306	      0.83765969	     -5.42246265	     -4.18393816	      4.74554936	      1.60211918	      8.02047791	      2.37350433
